<svg version="1.1" viewBox="0.0 0.0 250.0 70.0" fill="none" stroke="none" stroke-linecap="square" stroke-miterlimit="10" xmlns:xlink="http://www.w3.org/1999/xlink" xmlns="http://www.w3.org/2000/svg"><clipPath id="p.0"><path d="m0 0l250.0 0l0 70.0l-250.0 0l0 -70.0z" clip-rule="nonzero"/></clipPath><g clip-path="url(#p.0)"><path fill="#f5fffa" d="m0 0l250.0 0l0 70.0l-250.0 0z" fill-rule="evenodd"/><path fill="#f5fffa" d="m-0.007874016 8.892364l250.01575 0l0 52.440945l-250.01575 0z" fill-rule="evenodd"/><path fill="#f5fffa" d="m17.685547 11.333308l214.6289 0l0 17.599998l-214.6289 0l0 -17.599998z" fill-rule="nonzero"/><path fill="#000000" fill-opacity="0.0" d="m17.685547 12.522683l135.0 0l0 15.000001l-135.0 0l0 -15.000001z" fill-rule="nonzero"/><path fill="#000000" d="m20.654297 17.44456q-0.25 1.296875 -0.671875 2.390625l-1.609375 -0.71875q0.78125 -2.109375 0.96875 -5.203126l1.46875 0.15625q1.34375 0.359375 0.234375 0.8125l-0.0625 0.640625l0.15625 0l0 -2.859375l1.453125 0q1.3125 0.125 0.34375 0.8125l0 2.046875l1.46875 0l0 1.921876l-1.46875 0l0 1.9375l1.15625 -0.375l0.359375 1.703125l-1.515625 0.609375l0 5.390625l-1.796875 0l0 -4.609375l-1.09375 0.421875q-0.125 0.828125 -0.859375 0.109375l-0.515625 -1.71875l2.46875 -0.796875l0 -2.671875l-0.484375 0zm5.9375 7.609375q-0.734375 -1.21875 -2.0 -2.234375l1.421875 -1.15625q1.5 0.984375 2.046875 2.109375l-1.46875 1.28125zm1.90625 -12.390626q1.296875 0.125 0.359375 0.8125l0 1.234375l2.8125 0l0 1.734376l-2.8125 0l0 1.140625l3.6875 0l0 1.734375l-2.046875 0l0 0.890625l1.765625 0l0 1.75l-1.765625 0l0 3.5q0 1.125 -1.078125 1.125l-1.609375 0l-0.265625 -1.734375l1.234375 0q0 0.078125 -0.078125 0.078125l0 -2.96875l-4.453125 0l0 -1.75l4.453125 0l0 -0.890625l-4.921875 0l0 -1.734375l3.28125 0l0 -1.140625l-2.640625 0l0 -1.734376l2.640625 0l0 -2.046875l1.4375 0zm5.03125 12.656251q3.03125 -1.859375 2.96875 -5.921875l1.8125 0.3125q0.515625 0.53125 0.015625 0.828125l-0.25 1.828125q0.75 0.90625 1.640625 1.390625l0 -4.84375l-3.984375 0l0 -1.75l9.46875 0l0 1.75l-3.6875 0l0 1.53125l4.109375 0l0 1.75l-4.109375 0l0 2.265625q0.609375 0.15625 1.453125 0.15625l4.25 0l-0.375 1.734375l-3.875 0q-3.546875 0 -5.5 -2.21875q-0.703125 1.59375 -2.59375 2.78125l-1.34375 -1.59375zm7.921875 -10.968751l5.390625 0l0 3.734376l-1.796875 0l0 -1.984375l-9.09375 0l0 2.109375l-1.796875 0l0 -3.859376l5.328125 0l0 -1.6875l1.640625 0q1.34375 0.25 0.328125 0.953125l0 0.734375zm13.59375 7.406251q0 3.75 -4.875 5.125l-0.84375 -1.734375q3.765625 -1.15625 3.84375 -2.609375l-3.25 0.9375q-0.125 0.8125 -0.859375 0.078125l-0.375 -1.734375l4.5625 -1.078125l0 -0.78125l-3.390625 0l0 -1.734375l3.390625 0l0 -1.25l-4.09375 0l0 -1.734376l4.09375 0l0 -2.296875l1.453125 0q1.28125 0.171875 0.34375 0.828125l0 7.984376zm6.921875 -6.515626l0 1.734376l-4.046875 0l0 1.25l3.40625 0l0 1.734375l-3.40625 0l0 1.421875l4.625 0l0 1.75l-4.625 0l0 3.390625l-1.796875 0l0 -13.578126l1.4375 0q1.265625 0.171875 0.359375 0.828125l0 1.46875l4.046875 0zm12.203125 11.406251l0 -0.40625l-7.40625 0l0 0.515625l-1.796875 0l0 -5.078125l4.359375 0l0.21875 -0.65625l-1.3125 0l0 0.34375l-1.796875 0l0 -4.25l8.0625 0l0 4.1875l-1.796875 0l0.03125 -0.3125l-1.359375 0.03125l-0.21875 0.65625l4.8125 0l0 4.96875l-1.796875 0zm2.90625 -11.468751l0 3.500001l-1.796875 0l0 -1.765625l-9.6875 0l0 1.765625l-1.796875 0l0 -3.500001l2.84375 0q-0.09375 -0.21875 -1.078125 -1.203125l1.5 -1.046875q1.0 0.828125 1.625 2.03125l-0.34375 0.21875l4.234375 0q0.578125 -0.828125 1.046875 -2.609375l1.6875 0.578125q1.078125 0.53125 -0.078125 0.890625q-0.421875 0.921875 -0.609375 1.140625l2.453125 0zm-6.75 -2.546875q0.875 0.640625 1.703125 2.03125l-1.5625 0.953125q-0.75 -1.15625 -1.5625 -1.984375l1.421875 -1.0zm2.375 6.218751l-4.46875 0l0 0.421875l4.46875 0l0 -0.421875zm-5.9375 5.640625l7.40625 0l0 -1.078125l-7.40625 0l0 1.078125zm12.265625 -6.046875l0 -1.75l3.0 0l0 -1.281251l-2.390625 0.171875l-0.46875 -1.6875q3.640625 -0.1875 6.375 -0.765625l0.71875 1.25q0.171875 1.109375 -0.703125 0.609375l-1.734375 0.1875l0 1.515626l3.15625 0l0 1.75l-3.15625 0l0 0.765625q1.6875 0.765625 3.015625 2.1875l-1.265625 1.609375q-1.09375 -1.25 -1.75 -1.703125l0 5.28125l-1.796875 0l0 -4.8125q-0.4375 0.78125 -2.421875 2.390625l-1.015625 -1.78125q2.484375 -1.859375 3.1875 -3.9375l-2.75 0zm12.34375 -5.078126q1.296875 0.125 0.359375 0.8125l0 11.046876q0 1.25 -1.25 1.25l-1.59375 0l-0.375 -1.75l1.5625 0q0 0.140625 -0.140625 0.140625l0 -11.500001l1.4375 0zm-2.984375 1.453125q1.265625 0.171875 0.359375 0.828125l0 8.000001l-1.796875 0l0 -8.828126l1.4375 0zm9.09375 -0.78125q4.609375 -0.328125 7.90625 -1.0l0.84375 1.328125q0.34375 1.09375 -0.6875 0.578125q-1.25 0.21875 -2.390625 0.359375l0 1.750001l4.34375 0l0 1.734375l-4.34375 0l0 1.65625l2.984375 0l0 6.03125l-1.796875 0l0 -0.46875l-4.109375 0l0 0.640625l-1.796875 0l0 -6.203125l2.921875 0l0 -1.65625l-4.15625 0l0 -1.734375l4.15625 0l0 -1.593751q-1.53125 0.109375 -3.515625 0.3125l-0.359375 -1.734375zm2.75 10.218751l4.109375 0l0 -2.0625l-4.109375 0l0 2.0625zm-6.828125 0.96875q1.671875 -2.328125 2.734375 -4.734375l1.640625 1.03125q-1.390625 3.203125 -2.203125 4.390625q0.21875 0.6875 -0.65625 0.546875l-1.515625 -1.234375zm1.4375 -8.671875q1.140625 0.609375 2.5625 1.75l-1.109375 1.6875q-1.4375 -1.09375 -2.5625 -1.84375l1.109375 -1.59375zm0.40625 -3.484376q0.96875 0.578125 2.546875 1.8125l-1.0625 1.843751q-1.578125 -1.281251 -2.578125 -2.046876l1.09375 -1.609375zm19.21875 12.203126q0.84375 -0.4375 0.859375 -0.359375l-5.46875 1.09375q-0.09375 0.84375 -0.84375 0.078125l-0.46875 -1.71875l3.484375 -0.421875l0 -0.46875l-2.765625 0l0 -1.5625l2.765625 0l0 -0.25l-1.046875 0l-1.59375 0l0 -4.78125l2.640625 0l0 -0.203125l-3.40625 0l0 -1.562501l3.40625 0l0 -0.0625q-1.140625 0.046875 -2.890625 0.125l-0.28125 -1.640625q3.21875 0 6.703125 -0.671875l0.625 1.1875q0.59375 1.140625 -0.671875 0.59375q-1.140625 0.15625 -1.875 0.25l0 0.21875l3.234375 0l0 1.562501l-3.234375 0l0 0.203125l2.703125 0l0 4.78125l-2.703125 0l0 0.25l2.9375 0l0 1.5625l-2.9375 0l0 0.203125l2.9375 -0.46875l0 0.484375q1.078125 -0.96875 1.125 -3.921875l0.046875 -1.984375l-1.390625 0l0 -1.734375l1.40625 0l0 -2.984376l1.4375 0q1.296875 0.171875 0.359375 0.8125l0 2.171876l2.578125 0l-0.109375 8.046875q-0.078125 2.421875 -1.84375 2.421875l-1.84375 0l-0.265625 -1.734375l1.703125 0q0.40625 0 0.453125 -0.9375l0.15625 -6.0625l-0.828125 0l-0.0625 2.453125q-0.046875 4.203125 -3.96875 6.703125l-1.0625 -1.671875zm-0.828125 -5.375l0 0.4375l1.078125 0l0 -0.4375l-1.078125 0zm0 -1.6875l0 0.359375l1.078125 0l0 -0.359375l-1.078125 0zm-2.625 1.6875l0 0.4375l1.015625 0l0 -0.4375l-1.015625 0zm0 -1.6875l0 0.359375l1.015625 0l0 -0.359375l-1.015625 0zm22.75 5.328125l-1.1875 -1.46875l1.46875 -1.140625q2.21875 2.40625 3.421875 4.6875l-1.765625 1.171875q-0.546875 -1.125 -0.84375 -1.53125l-6.71875 0.65625q-0.078125 0.875 -0.84375 0.125l-0.609375 -2.0625l2.046875 -0.0625q1.015625 -1.765625 1.671875 -3.421875l-3.203125 0l0 -1.734375l3.859375 0l0 -1.78125l-2.859375 0l0 -1.734376l2.859375 0l0 -2.34375l1.640625 0q1.328125 0.25 0.34375 0.9375l0 1.40625l3.15625 0l0 1.734376l-3.15625 0l0 1.78125l4.265625 0l0 1.734375l-4.671875 0q-0.859375 1.890625 -1.765625 3.3125l2.890625 -0.265625zm-6.078125 -2.03125q-1.296875 2.96875 -2.140625 4.59375q0.109375 1.046875 -0.796875 0.421875l-1.421875 -1.0625q1.28125 -1.640625 2.75 -4.84375l1.609375 0.890625zm-1.625 -1.09375q-1.09375 -1.171875 -2.515625 -2.21875l1.203125 -1.46875q1.75 1.109375 2.578125 2.15625l-1.265625 1.53125zm0.65625 -3.25q-1.265625 -1.125 -2.53125 -2.015626l1.21875 -1.46875q1.46875 0.921875 2.609375 2.03125l-1.296875 1.453126zm17.65625 -3.921876l1.625 0q1.375 0.28125 0.34375 0.953125l0 2.218751q0.390625 5.421875 6.078125 7.890625l-0.96875 2.03125q-4.4375 -1.9375 -5.84375 -5.78125q-1.015625 3.59375 -5.71875 5.765625l-1.265625 -1.828125q5.75 -2.25 5.75 -7.890625l0 -3.359376z" fill-rule="nonzero"/><path fill="#010000" fill-opacity="0.0" d="m152.68555 12.522683l26.191406 0l0 15.000001l-26.191406 0l0 -15.000001z" fill-rule="nonzero"/><path fill="#000000" d="m155.1543 22.06956q0 1.171875 0.515625 1.703125q0.53125 0.53125 1.40625 0.53125q0.9375 0 1.46875 -0.53125q0.9375 -0.9375 0.9375 -1.640625l0 -3.453125l1.34375 0l0 6.609375l-1.34375 0l0 -1.171875q-1.0 1.296875 -2.515625 1.296875q-1.53125 0 -2.28125 -0.765625q-0.890625 -0.875 -0.890625 -2.515625l0 -3.453125l1.359375 0l0 3.390625zm9.128906 0.125q0 0.875 0.65625 1.515625q0.578125 0.59375 1.578125 0.59375q0.9375 0 1.40625 -0.46875q0.296875 -0.296875 0.40625 -0.9375l1.46875 0q-0.171875 1.046875 -0.828125 1.6875q-0.8125 0.828125 -2.453125 0.828125q-1.703125 0 -2.640625 -0.9375q-1.0 -1.0 -1.0 -2.578125q0 -1.40625 1.125 -2.515625q0.875 -0.890625 2.390625 -0.890625q1.53125 0 2.40625 0.890625q1.0625 1.046875 1.109375 2.8125l-5.625 0zm4.109375 -1.125q-0.171875 -0.515625 -0.59375 -0.9375q-0.515625 -0.515625 -1.40625 -0.515625q-0.9375 0 -1.453125 0.515625q-0.421875 0.421875 -0.59375 0.9375l4.046875 0zm10.078125 1.640625q-0.171875 1.0 -0.9375 1.765625q-0.9375 0.9375 -2.578125 0.9375q-1.703125 0 -2.640625 -0.9375q-1.0 -1.0 -1.0 -2.46875q0 -1.40625 1.0625 -2.453125q1.0 -1.0 2.640625 -1.0q1.578125 0 2.515625 0.9375q0.640625 0.640625 0.8125 1.34375l-1.515625 0q-0.125 -0.28125 -0.46875 -0.640625q-0.53125 -0.53125 -1.34375 -0.53125q-1.0 0 -1.640625 0.65625q-0.65625 0.640625 -0.65625 1.6875q0 1.0625 0.59375 1.640625q0.640625 0.65625 1.703125 0.65625q0.875 0 1.453125 -0.59375q0.46875 -0.46875 0.46875 -1.0l1.53125 0z" fill-rule="nonzero"/><path fill="#000000" fill-opacity="0.0" d="m178.87695 12.522683l53.4375 0l0 15.000001l-53.4375 0l0 -15.000001z" fill-rule="nonzero"/><path fill="#000000" d="m190.11133 16.991434l3.453125 0l0 1.921875l-3.390625 0l0 0.796875q0 4.59375 -5.046875 6.640625l-1.390625 -1.5625q4.453125 -1.484375 4.453125 -4.96875l0 -0.90625l-3.234375 0l0.0625 2.984375l-1.921875 0l-0.0625 -2.984375l-3.28125 0l0 -1.921875l3.28125 0l-0.046875 -3.109376l1.546875 0q1.265625 0.125 0.359375 1.03125l0.0625 2.078126l3.1875 0l0 -3.578126l1.609375 0q1.265625 0.125 0.359375 1.03125l0 2.546876zm16.265625 -2.046876q0.34375 0 0.546875 -0.203125q0.203125 -0.203125 0.203125 -0.546875q0 -0.328125 -0.203125 -0.53125q-0.203125 -0.203125 -0.546875 -0.203125q-0.34375 0 -0.546875 0.203125q-0.1875 0.1875 -0.1875 0.53125q0 0.34375 0.1875 0.546875q0.203125 0.203125 0.546875 0.203125zm0 1.203126q-0.828125 0 -1.390625 -0.56250095q-0.5625 -0.5625 -0.5625 -1.390625q0 -0.828125 0.5625 -1.390625q0.5625 -0.5625 1.390625 -0.5625q0.828125 0 1.390625 0.5625q0.5625 0.5625 0.5625 1.390625q0 0.828125 -0.5625 1.390625q-0.5625 0.56250095 -1.390625 0.56250095zm-1.953125 2.546875q2.328125 2.46875 3.53125 4.625l-1.796875 1.234375q-1.375 -2.4375 -3.34375 -4.53125l1.609375 -1.328125zm-2.53125 -2.40625l5.390625 0l0 1.921875l-5.390625 0l0 8.140625l-1.984375 0l0 -8.140625l-5.265625 0l0 -1.921875l5.265625 0l0 -3.281251l1.578125 0q1.421875 0.28125 0.40625 0.953125l0 2.328126zm-3.25 3.265625q0.84375 0.734375 -0.1875 0.953125q-0.8125 1.8125 -2.34375 4.171875l-1.84375 -1.0q1.640625 -2.375 2.75 -5.0l1.625 0.875zm10.234375 1.046875l0 -1.90625l13.6875 0l0 1.90625l-13.6875 0zm17.554688 -2.765625q2.671875 0.75 5.921875 2.3125l-0.984375 1.921875q-3.359375 -1.71875 -4.9375 -2.125l0 6.0l-1.96875 0l0 -12.343751l1.5 0q1.515625 0.09375 0.46875 0.9375l0 3.296876z" fill-rule="nonzero"/><path fill="#000000" fill-opacity="0.0" d="m232.31445 12.145394l0 0l0 16.853256l0 0l0 -16.853256z" fill-rule="nonzero"/><path fill="#f5fffa" d="m41.774063 29.33331l166.45187 0l0 12.799999l-166.45187 0l0 -12.799999z" fill-rule="nonzero"/><path fill="#000000" fill-opacity="0.0" d="m41.774063 29.926489l166.45187 0l0 12.253649l-166.45187 0l0 -12.253649z" fill-rule="nonzero"/><path fill="#000000" d="m42.586563 39.573307l0 -7.624998l1.03125 0l4.015625 5.984373l0 -5.984373l0.96875 0l0 7.624998l-1.046875 0l-4.0 -6.0l0 6.0l-0.96875 0zm7.2424774 -2.765625q0 -1.53125 0.84375 -2.265625q0.71875 -0.625 1.734375 -0.625q1.140625 0 1.859375 0.75q0.734375 0.75 0.734375 2.0625q0 1.0625 -0.328125 1.6875q-0.3125 0.609375 -0.921875 0.953125q-0.609375 0.328125 -1.34375 0.328125q-1.15625 0 -1.875 -0.734375q-0.703125 -0.75 -0.703125 -2.15625zm0.953125 0q0 1.0625 0.46875 1.59375q0.46875 0.53125 1.15625 0.53125q0.703125 0 1.15625 -0.53125q0.46875 -0.53125 0.46875 -1.625q0 -1.015625 -0.46875 -1.546875q-0.453125 -0.53125 -1.15625 -0.53125q-0.6875 0 -1.15625 0.53125q-0.46875 0.515625 -0.46875 1.578125zm5.3171234 2.765625l0 -5.53125l0.84375 0l0 0.796875q0.609375 -0.921875 1.75 -0.921875q0.5 0 0.921875 0.1875q0.421875 0.171875 0.625 0.46875q0.21875 0.296875 0.296875 0.6875q0.046875 0.265625 0.046875 0.921875l0 3.390625l-0.9375 0l0 -3.359375q0 -0.578125 -0.109375 -0.859375q-0.109375 -0.28125 -0.390625 -0.453125q-0.265625 -0.171875 -0.640625 -0.171875q-0.59375 0 -1.03125 0.390625q-0.4375 0.375 -0.4375 1.4375l0 3.015625l-0.9375 0zm8.887146 2.1250038l0 -7.656254l0.859375 0l0 0.71875q0.296875 -0.421875 0.671875 -0.625q0.390625 -0.21875 0.921875 -0.21875q0.703125 0 1.25 0.375q0.546875 0.359375 0.8125 1.03125q0.28125 0.65625 0.28125 1.453125q0 0.84375 -0.3125 1.53125q-0.296875 0.671875 -0.875 1.03125q-0.578125 0.359375 -1.21875 0.359375q-0.46875 0 -0.84375 -0.1875q-0.375 -0.203125 -0.609375 -0.515625l0 2.7031288l-0.9375 0zm0.84375 -4.859379q0 1.0625 0.4375 1.578125q0.4375 0.515625 1.046875 0.515625q0.625 0 1.0625 -0.53125q0.453125 -0.53125 0.453125 -1.640625q0 -1.046875 -0.4375 -1.578125q-0.4375 -0.53125 -1.046875 -0.53125q-0.59375 0 -1.0625 0.5625q-0.453125 0.5625 -0.453125 1.625zm5.0671234 2.734375l0 -5.53125l0.84375 0l0 0.84375q0.328125 -0.59375 0.59375 -0.78125q0.28125 -0.1875 0.609375 -0.1875q0.46875 0 0.953125 0.3125l-0.3125 0.859375q-0.34375 -0.203125 -0.6875 -0.203125q-0.3125 0 -0.5625 0.1875q-0.234375 0.1875 -0.34375 0.515625q-0.15625 0.5 -0.15625 1.09375l0 2.890625l-0.9375 0zm3.2204895 -2.765625q0 -1.53125 0.84375 -2.265625q0.71875 -0.625 1.734375 -0.625q1.140625 0 1.859375 0.75q0.734375 0.75 0.734375 2.0625q0 1.0625 -0.328125 1.6875q-0.3125 0.609375 -0.921875 0.953125q-0.609375 0.328125 -1.34375 0.328125q-1.15625 0 -1.875 -0.734375q-0.703125 -0.75 -0.703125 -2.15625zm0.953125 0q0 1.0625 0.46875 1.59375q0.46875 0.53125 1.15625 0.53125q0.703125 0 1.15625 -0.53125q0.46875 -0.53125 0.46875 -1.625q0 -1.015625 -0.46875 -1.546875q-0.453125 -0.53125 -1.15625 -0.53125q-0.6875 0 -1.15625 0.53125q-0.46875 0.515625 -0.46875 1.578125zm5.5358734 2.765625l0 -4.796875l-0.828125 0l0 -0.734375l0.828125 0l0 -0.578125q0 -0.5625 0.109375 -0.828125q0.125 -0.375 0.46875 -0.59375q0.34375 -0.2343731 0.953125 -0.2343731q0.390625 0 0.875 0.09375l-0.140625 0.8281231q-0.296875 -0.0625 -0.546875 -0.0625q-0.421875 0 -0.609375 0.1875q-0.171875 0.1875 -0.171875 0.6875l0 0.5l1.078125 0l0 0.734375l-1.078125 0l0 4.796875l-0.9375 0zm2.7418976 -6.546875l0 -1.0781231l0.9375 0l0 1.0781231l-0.9375 0zm0 6.546875l0 -5.53125l0.9375 0l0 5.53125l-0.9375 0zm4.4143524 -0.84375l0.125 0.828125q-0.390625 0.09375 -0.703125 0.09375q-0.5 0 -0.78125 -0.15625q-0.28125 -0.171875 -0.40625 -0.4375q-0.109375 -0.265625 -0.109375 -1.109375l0 -3.171875l-0.6875 0l0 -0.734375l0.6875 0l0 -1.359375l0.9375 -0.5625l0 1.921875l0.9375 0l0 0.734375l-0.9375 0l0 3.234375q0 0.390625 0.046875 0.515625q0.046875 0.109375 0.15625 0.1875q0.109375 0.0625 0.328125 0.0625q0.15625 0 0.40625 -0.046875zm3.5306702 -1.921875q0 -1.53125 0.84375 -2.265625q0.71875 -0.625 1.734375 -0.625q1.140625 0 1.859375 0.75q0.734375 0.75 0.734375 2.0625q0 1.0625 -0.328125 1.6875q-0.3125 0.609375 -0.921875 0.953125q-0.609375 0.328125 -1.34375 0.328125q-1.15625 0 -1.875 -0.734375q-0.703125 -0.75 -0.703125 -2.15625zm0.953125 0q0 1.0625 0.46875 1.59375q0.46875 0.53125 1.15625 0.53125q0.703125 0 1.15625 -0.53125q0.46875 -0.53125 0.46875 -1.625q0 -1.015625 -0.46875 -1.546875q-0.453125 -0.53125 -1.15625 -0.53125q-0.6875 0 -1.15625 0.53125q-0.46875 0.515625 -0.46875 1.578125zm5.3014984 2.765625l0 -5.53125l0.84375 0l0 0.84375q0.328125 -0.59375 0.59375 -0.78125q0.28125 -0.1875 0.609375 -0.1875q0.46875 0 0.953125 0.3125l-0.3125 0.859375q-0.34375 -0.203125 -0.6875 -0.203125q-0.3125 0 -0.5625 0.1875q-0.234375 0.1875 -0.34375 0.515625q-0.15625 0.5 -0.15625 1.09375l0 2.890625l-0.9375 0zm3.3923645 0.453125l0.90625 0.140625q0.0625 0.421875 0.328125 0.609375q0.34375 0.2656288 0.9375 0.2656288q0.65625 0 1.0 -0.2656288q0.359375 -0.25 0.484375 -0.71875q0.078125 -0.296875 0.078125 -1.203125q-0.625 0.71875 -1.53125 0.71875q-1.140625 0 -1.765625 -0.8125q-0.625 -0.828125 -0.625 -1.984375q0 -0.78125 0.28125 -1.453125q0.296875 -0.671875 0.828125 -1.03125q0.546875 -0.375 1.28125 -0.375q0.984375 0 1.609375 0.796875l0 -0.671875l0.875 0l0 4.78125q0 1.296875 -0.265625 1.828125q-0.265625 0.5468788 -0.84375 0.8593788q-0.5625 0.3125 -1.390625 0.3125q-0.984375 0 -1.59375 -0.453125q-0.609375 -0.4375 -0.59375 -1.3437538zm0.78125 -3.3125q0 1.078125 0.421875 1.578125q0.4375 0.5 1.078125 0.5q0.65625 0 1.09375 -0.484375q0.4375 -0.5 0.4375 -1.5625q0 -1.015625 -0.453125 -1.53125q-0.453125 -0.515625 -1.09375 -0.515625q-0.609375 0 -1.046875 0.515625q-0.4375 0.5 -0.4375 1.5zm8.926498 2.171875q-0.53125 0.453125 -1.015625 0.640625q-0.46875 0.171875 -1.015625 0.171875q-0.921875 0 -1.40625 -0.4375q-0.484375 -0.453125 -0.484375 -1.140625q0 -0.40625 0.171875 -0.734375q0.1875 -0.34375 0.484375 -0.546875q0.3125 -0.203125 0.6875 -0.3125q0.265625 -0.0625 0.828125 -0.140625q1.125 -0.125 1.671875 -0.3125q0 -0.203125 0 -0.25q0 -0.578125 -0.265625 -0.8125q-0.359375 -0.3125 -1.0625 -0.3125q-0.65625 0 -0.984375 0.234375q-0.3125 0.234375 -0.453125 0.8125l-0.921875 -0.125q0.125 -0.578125 0.40625 -0.9375q0.296875 -0.375 0.828125 -0.5625q0.546875 -0.203125 1.25 -0.203125q0.71875 0 1.15625 0.171875q0.4375 0.171875 0.640625 0.421875q0.21875 0.25 0.296875 0.640625q0.046875 0.234375 0.046875 0.859375l0 1.25q0 1.296875 0.0625 1.65625q0.0625 0.34375 0.234375 0.65625l-0.96875 0q-0.15625 -0.296875 -0.1875 -0.6875zm-0.078125 -2.078125q-0.515625 0.203125 -1.53125 0.34375q-0.578125 0.078125 -0.828125 0.1875q-0.234375 0.109375 -0.359375 0.3125q-0.125 0.1875 -0.125 0.4375q0 0.375 0.28125 0.625q0.28125 0.25 0.828125 0.25q0.53125 0 0.953125 -0.234375q0.421875 -0.234375 0.625 -0.65625q0.15625 -0.3125 0.15625 -0.9375l0 -0.328125zm2.3952484 2.765625l0 -5.53125l0.84375 0l0 0.796875q0.609375 -0.921875 1.75 -0.921875q0.5 0 0.921875 0.1875q0.421875 0.171875 0.625 0.46875q0.21875 0.296875 0.296875 0.6875q0.046875 0.265625 0.046875 0.921875l0 3.390625l-0.9375 0l0 -3.359375q0 -0.578125 -0.109375 -0.859375q-0.109375 -0.28125 -0.390625 -0.453125q-0.265625 -0.171875 -0.640625 -0.171875q-0.59375 0 -1.03125 0.390625q-0.4375 0.375 -0.4375 1.4375l0 3.015625l-0.9375 0zm5.9264984 -6.546875l0 -1.0781231l0.9375 0l0 1.0781231l-0.9375 0zm0 6.546875l0 -5.53125l0.9375 0l0 5.53125l-0.9375 0zm1.8674774 0l0 -0.765625l3.515625 -4.03125q-0.59375 0.03125 -1.046875 0.03125l-2.25 0l0 -0.765625l4.515625 0l0 0.625l-3.0 3.5l-0.578125 0.640625q0.640625 -0.046875 1.1875 -0.046875l2.546875 0l0 0.8125l-4.890625 0zm9.4375 -0.6875q-0.53125 0.453125 -1.015625 0.640625q-0.46875 0.171875 -1.015625 0.171875q-0.921875 0 -1.40625 -0.4375q-0.484375 -0.453125 -0.484375 -1.140625q0 -0.40625 0.171875 -0.734375q0.1875 -0.34375 0.484375 -0.546875q0.3125 -0.203125 0.6875 -0.3125q0.265625 -0.0625 0.828125 -0.140625q1.125 -0.125 1.671875 -0.3125q0 -0.203125 0 -0.25q0 -0.578125 -0.265625 -0.8125q-0.359375 -0.3125 -1.0625 -0.3125q-0.65625 0 -0.984375 0.234375q-0.3125 0.234375 -0.453125 0.8125l-0.921875 -0.125q0.125 -0.578125 0.40625 -0.9375q0.296875 -0.375 0.828125 -0.5625q0.546875 -0.203125 1.25 -0.203125q0.71875 0 1.15625 0.171875q0.4375 0.171875 0.640625 0.421875q0.21875 0.25 0.296875 0.640625q0.046875 0.234375 0.046875 0.859375l0 1.25q0 1.296875 0.0625 1.65625q0.0625 0.34375 0.234375 0.65625l-0.96875 0q-0.15625 -0.296875 -0.1875 -0.6875zm-0.078125 -2.078125q-0.515625 0.203125 -1.53125 0.34375q-0.578125 0.078125 -0.828125 0.1875q-0.234375 0.109375 -0.359375 0.3125q-0.125 0.1875 -0.125 0.4375q0 0.375 0.28125 0.625q0.28125 0.25 0.828125 0.25q0.53125 0 0.953125 -0.234375q0.421875 -0.234375 0.625 -0.65625q0.15625 -0.3125 0.15625 -0.9375l0 -0.328125zm4.4421234 1.921875l0.125 0.828125q-0.390625 0.09375 -0.703125 0.09375q-0.5 0 -0.78125 -0.15625q-0.28125 -0.171875 -0.40625 -0.4375q-0.109375 -0.265625 -0.109375 -1.109375l0 -3.171875l-0.6875 0l0 -0.734375l0.6875 0l0 -1.359375l0.9375 -0.5625l0 1.921875l0.9375 0l0 0.734375l-0.9375 0l0 3.234375q0 0.390625 0.046875 0.515625q0.046875 0.109375 0.15625 0.1875q0.109375 0.0625 0.328125 0.0625q0.15625 0 0.40625 -0.046875zm0.9137726 -5.703125l0 -1.0781231l0.9375 0l0 1.0781231l-0.9375 0zm0 6.546875l0 -5.53125l0.9375 0l0 5.53125l-0.9375 0zm2.0237274 -2.765625q0 -1.53125 0.84375 -2.265625q0.71875 -0.625 1.734375 -0.625q1.140625 0 1.859375 0.75q0.734375 0.75 0.734375 2.0625q0 1.0625 -0.328125 1.6875q-0.3125 0.609375 -0.921875 0.953125q-0.609375 0.328125 -1.34375 0.328125q-1.15625 0 -1.875 -0.734375q-0.703125 -0.75 -0.703125 -2.15625zm0.953125 0q0 1.0625 0.46875 1.59375q0.46875 0.53125 1.15625 0.53125q0.703125 0 1.15625 -0.53125q0.46875 -0.53125 0.46875 -1.625q0 -1.015625 -0.46875 -1.546875q-0.453125 -0.53125 -1.15625 -0.53125q-0.6875 0 -1.15625 0.53125q-0.46875 0.515625 -0.46875 1.578125zm5.3171234 2.765625l0 -5.53125l0.84375 0l0 0.796875q0.609375 -0.921875 1.75 -0.921875q0.5 0 0.921875 0.1875q0.421875 0.171875 0.625 0.46875q0.21875 0.296875 0.296875 0.6875q0.046875 0.265625 0.046875 0.921875l0 3.390625l-0.9375 0l0 -3.359375q0 -0.578125 -0.109375 -0.859375q-0.109375 -0.28125 -0.390625 -0.453125q-0.265625 -0.171875 -0.640625 -0.171875q-0.59375 0 -1.03125 0.390625q-0.4375 0.375 -0.4375 1.4375l0 3.015625l-0.9375 0zm12.512146 0l0 -0.8125q-0.65625 0.9375 -1.75 0.9375q-0.5 0 -0.921875 -0.1875q-0.421875 -0.1875 -0.625 -0.46875q-0.203125 -0.28125 -0.296875 -0.703125q-0.046875 -0.265625 -0.046875 -0.875l0 -3.421875l0.9375 0l0 3.0625q0 0.734375 0.046875 1.0q0.09375 0.359375 0.375 0.578125q0.296875 0.203125 0.703125 0.203125q0.421875 0 0.796875 -0.203125q0.375 -0.21875 0.515625 -0.59375q0.15625 -0.375 0.15625 -1.078125l0 -2.96875l0.9375 0l0 5.53125l-0.828125 0zm6.0827484 -1.78125l0.96875 0.125q-0.234375 0.84375 -0.859375 1.3125q-0.609375 0.46875 -1.578125 0.46875q-1.203125 0 -1.921875 -0.75q-0.703125 -0.75 -0.703125 -2.09375q0 -1.390625 0.71875 -2.15625q0.71875 -0.78125 1.859375 -0.78125q1.109375 0 1.8125 0.765625q0.703125 0.75 0.703125 2.125q0 0.078125 0 0.234375l-4.125 0q0.046875 0.921875 0.515625 1.40625q0.46875 0.484375 1.15625 0.484375q0.515625 0 0.875 -0.265625q0.359375 -0.28125 0.578125 -0.875zm-3.078125 -1.515625l3.09375 0q-0.0625 -0.6875 -0.359375 -1.046875q-0.453125 -0.53125 -1.15625 -0.53125q-0.640625 0 -1.09375 0.4375q-0.4375 0.421875 -0.484375 1.140625zm8.832748 1.265625l0.921875 0.125q-0.15625 0.953125 -0.78125 1.5q-0.625 0.53125 -1.53125 0.53125q-1.125 0 -1.8125 -0.734375q-0.6875 -0.75 -0.6875 -2.125q0 -0.90625 0.296875 -1.578125q0.296875 -0.671875 0.890625 -1.0q0.609375 -0.34375 1.328125 -0.34375q0.890625 0 1.46875 0.46875q0.578125 0.453125 0.734375 1.28125l-0.90625 0.140625q-0.140625 -0.546875 -0.46875 -0.828125q-0.328125 -0.28125 -0.796875 -0.28125q-0.703125 0 -1.15625 0.515625q-0.4375 0.5 -0.4375 1.59375q0 1.109375 0.421875 1.625q0.4375 0.5 1.125 0.5q0.546875 0 0.90625 -0.34375q0.375 -0.34375 0.484375 -1.046875zm1.359375 -0.265625l0 -0.9375l2.875 0l0 0.9375l-2.875 0zm3.5329895 0.640625l0.921875 -0.140625q0.078125 0.5625 0.4375 0.859375q0.359375 0.296875 1.0 0.296875q0.640625 0 0.953125 -0.265625q0.3125 -0.265625 0.3125 -0.625q0 -0.3125 -0.28125 -0.5q-0.1875 -0.125 -0.953125 -0.3125q-1.03125 -0.265625 -1.4375 -0.453125q-0.390625 -0.1875 -0.59375 -0.515625q-0.203125 -0.34375 -0.203125 -0.75q0 -0.359375 0.171875 -0.671875q0.171875 -0.328125 0.453125 -0.53125q0.21875 -0.15625 0.59375 -0.265625q0.390625 -0.125 0.8125 -0.125q0.65625 0 1.140625 0.1875q0.5 0.1875 0.734375 0.515625q0.234375 0.3125 0.3125 0.859375l-0.90625 0.125q-0.0625 -0.4375 -0.375 -0.671875q-0.296875 -0.234375 -0.828125 -0.234375q-0.65625 0 -0.9375 0.21875q-0.265625 0.203125 -0.265625 0.484375q0 0.1875 0.109375 0.328125q0.125 0.15625 0.359375 0.25q0.140625 0.0625 0.828125 0.25q1.0 0.265625 1.390625 0.4375q0.390625 0.15625 0.609375 0.484375q0.234375 0.3125 0.234375 0.796875q0 0.46875 -0.28125 0.890625q-0.265625 0.40625 -0.78125 0.640625q-0.515625 0.21875 -1.171875 0.21875q-1.078125 0 -1.640625 -0.4375q-0.5625 -0.453125 -0.71875 -1.34375zm9.328125 1.65625l0 -0.8125q-0.65625 0.9375 -1.75 0.9375q-0.5 0 -0.921875 -0.1875q-0.421875 -0.1875 -0.625 -0.46875q-0.203125 -0.28125 -0.296875 -0.703125q-0.046875 -0.265625 -0.046875 -0.875l0 -3.421875l0.9375 0l0 3.0625q0 0.734375 0.046875 1.0q0.09375 0.359375 0.375 0.578125q0.296875 0.203125 0.703125 0.203125q0.421875 0 0.796875 -0.203125q0.375 -0.21875 0.515625 -0.59375q0.15625 -0.375 0.15625 -1.078125l0 -2.96875l0.9375 0l0 5.53125l-0.828125 0zm2.3014984 2.1250038l0 -7.656254l0.859375 0l0 0.71875q0.296875 -0.421875 0.671875 -0.625q0.390625 -0.21875 0.921875 -0.21875q0.703125 0 1.25 0.375q0.546875 0.359375 0.8125 1.03125q0.28125 0.65625 0.28125 1.453125q0 0.84375 -0.3125 1.53125q-0.296875 0.671875 -0.875 1.03125q-0.578125 0.359375 -1.21875 0.359375q-0.46875 0 -0.84375 -0.1875q-0.375 -0.203125 -0.609375 -0.515625l0 2.7031288l-0.9375 0zm0.84375 -4.859379q0 1.0625 0.4375 1.578125q0.4375 0.515625 1.046875 0.515625q0.625 0 1.0625 -0.53125q0.453125 -0.53125 0.453125 -1.640625q0 -1.046875 -0.4375 -1.578125q-0.4375 -0.53125 -1.046875 -0.53125q-0.59375 0 -1.0625 0.5625q-0.453125 0.5625 -0.453125 1.625zm5.0827484 4.859379l0 -7.656254l0.859375 0l0 0.71875q0.296875 -0.421875 0.671875 -0.625q0.390625 -0.21875 0.921875 -0.21875q0.703125 0 1.25 0.375q0.546875 0.359375 0.8125 1.03125q0.28125 0.65625 0.28125 1.453125q0 0.84375 -0.3125 1.53125q-0.296875 0.671875 -0.875 1.03125q-0.578125 0.359375 -1.21875 0.359375q-0.46875 0 -0.84375 -0.1875q-0.375 -0.203125 -0.609375 -0.515625l0 2.7031288l-0.9375 0zm0.84375 -4.859379q0 1.0625 0.4375 1.578125q0.4375 0.515625 1.046875 0.515625q0.625 0 1.0625 -0.53125q0.453125 -0.53125 0.453125 -1.640625q0 -1.046875 -0.4375 -1.578125q-0.4375 -0.53125 -1.046875 -0.53125q-0.59375 0 -1.0625 0.5625q-0.453125 0.5625 -0.453125 1.625zm4.7389984 -0.03125q0 -1.53125 0.84375 -2.265625q0.71875 -0.625 1.734375 -0.625q1.140625 0 1.859375 0.75q0.734375 0.75 0.734375 2.0625q0 1.0625 -0.328125 1.6875q-0.3125 0.609375 -0.921875 0.953125q-0.609375 0.328125 -1.34375 0.328125q-1.15625 0 -1.875 -0.734375q-0.703125 -0.75 -0.703125 -2.15625zm0.953125 0q0 1.0625 0.46875 1.59375q0.46875 0.53125 1.15625 0.53125q0.703125 0 1.15625 -0.53125q0.46875 -0.53125 0.46875 -1.625q0 -1.015625 -0.46875 -1.546875q-0.453125 -0.53125 -1.15625 -0.53125q-0.6875 0 -1.15625 0.53125q-0.46875 0.515625 -0.46875 1.578125zm5.3014984 2.765625l0 -5.53125l0.84375 0l0 0.84375q0.328125 -0.59375 0.59375 -0.78125q0.28125 -0.1875 0.609375 -0.1875q0.46875 0 0.953125 0.3125l-0.3125 0.859375q-0.34375 -0.203125 -0.6875 -0.203125q-0.3125 0 -0.5625 0.1875q-0.234375 0.1875 -0.34375 0.515625q-0.15625 0.5 -0.15625 1.09375l0 2.890625l-0.9375 0zm5.6111145 -0.84375l0.125 0.828125q-0.390625 0.09375 -0.703125 0.09375q-0.5 0 -0.78125 -0.15625q-0.28125 -0.171875 -0.40625 -0.4375q-0.109375 -0.265625 -0.109375 -1.109375l0 -3.171875l-0.6875 0l0 -0.734375l0.6875 0l0 -1.359375l0.9375 -0.5625l0 1.921875l0.9375 0l0 0.734375l-0.9375 0l0 3.234375q0 0.390625 0.046875 0.515625q0.046875 0.109375 0.15625 0.1875q0.109375 0.0625 0.328125 0.0625q0.15625 0 0.40625 -0.046875z" fill-rule="nonzero"/><path fill="#000000" fill-opacity="0.0" d="m208.22594 29.926489l0 0l0 12.253649l0 0l0 -12.253649z" fill-rule="nonzero"/><path fill="#000000" fill-opacity="0.0" d="m125.0 42.488678l0 0l0 3.054428l0 0l0 -3.054428z" fill-rule="nonzero"/><path fill="#f5fffa" d="m50.09375 45.33331l149.8125 0l0 14.400002l-149.8125 0l0 -14.400002z" fill-rule="nonzero"/><path fill="#000000" fill-opacity="0.0" d="m50.09375 46.54081l149.8125 0l0 12.0l-149.8125 0l0 -12.0z" fill-rule="nonzero"/><path fill="#000000" d="m61.578125 56.150185q-0.046875 1.734375 -1.546875 1.734375l-3.65625 0q-0.84375 0 -0.84375 -0.796875l0 -0.890625l-2.4375 0l0 0.796875l-0.796875 0l0 -4.59375l7.640625 0l0 3.796875l-3.46875 0l0 0.421875q0 0.375 0.328125 0.375l3.09375 0q0.609375 0 0.65625 -1.03125l1.03125 0.1875zm-8.484375 -0.703125l2.4375 0l0 -0.796875l-2.4375 0l0 0.796875zm0 -1.546875l2.4375 0l0 -0.75l-2.4375 0l0 0.75zm3.375 1.546875l2.671875 0l0 -0.796875l-2.671875 0l0 0.796875zm0 -1.546875l2.671875 0l0 -0.75l-2.671875 0l0 0.75zm-3.9375 -3.28125l0 -0.5625l2.578125 0l0 0.5625l-2.578125 0zm2.578125 1.125l-2.578125 0l0 -0.5625l2.578125 0l0 0.5625zm1.921875 0l0 -0.5625l2.71875 0l0 0.5625l-2.71875 0zm0 -1.125l0 -0.5625l2.71875 0l0 0.5625l-2.71875 0zm3.234375 -2.484375l-3.75 0l0 0.75l4.6875 0l0 2.25l-0.9375 0l0 -1.6875l-3.75 0l0 2.671875l-0.9375 0l0 -2.671875l-3.609375 0l0 1.875l-0.9375 0l0 -2.4375l4.546875 0l0 -0.75l-3.75 0l0 -0.75l8.4375 0l0 0.75zm7.734375 6.75q0.796875 0.609375 1.6875 1.453125l-0.703125 0.9375q-1.03125 -1.078125 -1.734375 -1.59375q-1.640625 1.40625 -3.5625 2.0625l-0.515625 -1.03125q1.96875 -0.703125 3.1875 -1.6875q-0.796875 -0.609375 -2.015625 -1.171875l0.65625 -0.796875q1.3125 0.609375 2.15625 1.21875q0.703125 -0.703125 1.3125 -1.6875l0.890625 0.65625q0.1875 0.234375 -0.140625 0.1875q-0.46875 0.703125 -1.21875 1.453125zm2.484375 -2.484375l-7.171875 0l0 -0.890625l8.109375 0l0 1.96875q0 1.96875 0.515625 2.625q0.328125 0.421875 0.421875 -0.09375q0.140625 -0.703125 0.140625 -0.796875l0.9375 0.5625q-0.328125 1.3125 -0.28125 1.21875q-0.515625 1.453125 -1.78125 0.09375q-0.890625 -0.9375 -0.890625 -3.796875l0 -0.890625zm-5.34375 -2.484375l5.8125 0l0 0.890625l-5.8125 0l0 -0.890625zm0.796875 -1.640625l6.515625 0l0 0.890625l-6.984375 0q-0.796875 1.21875 -1.875 1.96875l-0.703125 -0.796875q1.734375 -1.265625 2.53125 -3.1875l0.9375 0.328125q0.1875 0.1875 -0.140625 0.234375l-0.28125 0.5625zm13.546875 9.421875q-1.453125 0 -2.671875 -1.125q-0.5625 0.65625 -1.734375 1.3125l-0.375 -1.171875q0.515625 -0.140625 1.59375 -0.84375l0 -3.046875l-1.453125 0l0 -0.890625l2.390625 0l0 3.890625q0.9375 0.84375 2.4375 0.84375l5.8125 0l-0.1875 1.03125l-5.8125 0zm0.65625 -9.09375q1.171875 0.28125 1.5 0.421875l0.890625 -0.65625l-4.3125 0l0 -0.890625l5.34375 0l0.234375 -0.140625l0.703125 0.515625q0.28125 0.234375 -0.234375 0.28125l-1.828125 1.21875l0.609375 0.28125l-0.5625 0.5625l2.109375 0l0 5.34375q0 0.65625 -0.65625 0.65625l-1.03125 0l-0.046875 -0.890625l0.609375 0q0.1875 0 0.1875 -0.1875l0 -0.890625l-1.78125 0l0 1.828125l-0.9375 0l0 -1.828125l-1.6875 0l0 2.015625l-0.9375 0l0 -6.046875l3.46875 0q-1.96875 -0.796875 -2.34375 -0.890625l0.703125 -0.703125zm1.734375 2.34375l0 0.890625l1.78125 0l0 -0.890625l-1.78125 0zm-2.625 0l0 0.890625l1.6875 0l0 -0.890625l-1.6875 0zm1.6875 1.640625l-1.6875 0l0 0.890625l1.6875 0l0 -0.890625zm2.71875 0l-1.78125 0l0 0.890625l1.78125 0l0 -0.890625zm-7.640625 -5.203125q1.265625 0.796875 1.734375 1.546875l-0.796875 0.84375q-0.75 -0.9375 -1.59375 -1.59375l0.65625 -0.796875zm10.546875 5.0625q1.78125 -2.109375 2.109375 -5.203125l1.078125 0.28125q0.1875 0.1875 -0.140625 0.28125q-0.234375 1.359375 -0.609375 2.4375q0.515625 0.046875 0.09375 0.328125l0 7.3125l-0.9375 0l0 -5.90625q-0.328125 0.65625 -0.890625 1.3125l-0.703125 -0.84375zm9.09375 2.625l-4.171875 0l0 1.359375l4.171875 0l0 -1.359375zm-5.109375 -0.890625l6.046875 0l0 3.5625l-0.9375 0l0 -0.421875l-4.171875 0l0 0.5625l-0.9375 0l0 -3.703125zm0.28125 -0.796875l0 -0.890625l5.296875 0l0 0.890625l-5.296875 0zm0 -1.640625l0 -0.890625l5.296875 0l0 0.890625l-5.296875 0zm-1.078125 -2.484375l7.546875 0l0 0.890625l-7.546875 0l0 -0.890625zm1.078125 -1.6875l5.296875 0l0 0.890625l-5.296875 0l0 -0.890625zm8.015625 9.046875q4.3125 -1.5 4.546875 -5.765625l-4.21875 0l0 -1.03125l4.3125 0l0 -2.484375l1.03125 0q0.46875 0.09375 0.046875 0.375l0 2.109375l4.5 0l0 1.03125l-4.40625 0q0.984375 3.890625 4.78125 5.53125l-0.609375 1.125q-3.28125 -1.5 -4.640625 -5.0625q-0.796875 3.84375 -4.921875 5.296875l-0.421875 -1.125zm20.015625 -7.453125l2.296875 0l0 2.578125l-0.9375 0l0 -1.6875l-8.25 0l0 1.828125l-0.9375 0l0 -2.71875l6.796875 0l0.984375 -2.0625l0.984375 0.46875q0.1875 0.234375 -0.140625 0.28125l-0.796875 1.3125zm-2.859375 -2.015625q0.703125 0.890625 0.9375 1.453125l-0.984375 0.515625q-0.375 -0.84375 -0.84375 -1.453125l0.890625 -0.515625zm-0.328125 5.390625l0.796875 0.046875l1.359375 -0.796875l-4.96875 0l0 -0.75l5.765625 0l0.140625 -0.140625l0.796875 0.75q0.140625 0.1875 -0.234375 0.1875q-1.40625 0.890625 -2.71875 1.453125l0 0.46875l4.875 0l0 0.890625l-4.875 0l0 2.390625q0 0.75 -0.75 0.75l-1.265625 0l-0.1875 -1.03125l1.078125 0q0.1875 0 0.1875 -0.1875l0 -1.921875l-4.875 0l0 -0.890625l4.875 0l0 -1.21875zm-2.4375 -3.421875q-0.421875 -0.84375 -0.84375 -1.3125l0.890625 -0.515625q0.515625 0.5625 0.9375 1.3125l-0.984375 0.515625zm13.5 3.234375q1.734375 -0.46875 2.203125 -1.828125l-1.265625 -0.515625l0.328125 -0.796875l1.125 0.421875l0.09375 -1.125l-1.96875 0l0 -0.890625l5.625 0l-0.09375 4.03125q-0.046875 1.171875 -0.984375 1.171875l-1.078125 0l-0.09375 -0.890625l0.984375 0q0.28125 0 0.28125 -0.28125l0.09375 -3.140625l-1.828125 0l-0.140625 1.5l1.125 0.609375l-0.421875 0.84375l-0.9375 -0.515625q-0.609375 1.734375 -2.671875 2.34375l-0.375 -0.9375zm5.953125 4.6875q-0.375 -1.40625 -1.171875 -2.4375l0.84375 -0.375q1.03125 1.265625 1.3125 2.390625l-0.984375 0.421875zm-6.28125 -2.953125l0 3.609375l-0.796875 0l0 -0.328125l-1.59375 0l0 0.515625l-0.796875 0l0 -3.796875l3.1875 0zm0.375 3.0q0.328125 -1.171875 0.421875 -2.671875l0.9375 0.09375q0.09375 0.046875 -0.09375 0.234375q-0.046875 1.5 -0.421875 2.578125l-0.84375 -0.234375zm3.0 -4.546875q0.65625 0.421875 1.3125 1.453125l-0.890625 0.515625q-0.328125 -0.65625 -1.125 -1.5l0.703125 -0.46875zm-6.375 -5.109375l2.8125 0l0 0.890625l-2.8125 0l0 -0.890625zm-0.609375 1.59375l4.03125 0l0 0.890625l-4.03125 0l0 -0.890625zm0.609375 1.734375l2.8125 0l0 0.890625l-2.8125 0l0 -0.890625zm0 1.59375l2.8125 0l0 0.890625l-2.8125 0l0 -0.890625zm0.609375 2.484375l0 1.78125l1.59375 0l0 -1.78125l-1.59375 0zm5.296875 -0.890625q0.375 0.046875 0.046875 0.28125l0 2.203125q0 0.328125 0.28125 0.328125l1.03125 0q0.28125 0 0.328125 -0.28125l0.09375 -0.75l0.9375 0.234375l-0.1875 0.984375q-0.140625 0.703125 -0.84375 0.703125l-1.78125 0q-0.796875 0 -0.796875 -0.84375l0 -2.859375l0.890625 0zm5.578125 3.140625q2.296875 -1.40625 2.25 -4.5l1.078125 0.1875q0.140625 0.140625 -0.09375 0.28125l-0.234375 1.6875q0.703125 0.84375 1.828125 1.453125l0 -4.546875l-3.1875 0l0 -0.890625l7.078125 0l0 0.890625l-2.953125 0l0 1.734375l3.28125 0l0 0.890625l-3.28125 0l0 2.25q0.703125 0.1875 1.40625 0.1875l3.09375 0l-0.1875 0.890625l-2.90625 0q-2.71875 0 -4.453125 -1.96875q-0.703125 1.546875 -1.96875 2.34375l-0.75 -0.890625zm5.71875 -8.578125l4.3125 0l0 2.484375l-0.9375 0l0 -1.59375l-7.78125 0l0 1.6875l-0.9375 0l0 -2.578125l4.265625 0l0 -1.359375l1.03125 0q0.46875 0.09375 0.046875 0.375l0 0.984375zm10.78125 1.265625q2.15625 1.921875 5.484375 4.78125l-1.03125 0.9375q-2.4375 -2.25 -4.59375 -4.21875q-0.421875 -0.375 -0.5625 -0.375q-0.234375 0 -0.5625 0.375q-1.359375 1.59375 -2.625 2.953125l-0.890625 -1.03125q1.828125 -1.78125 3.46875 -3.375q0.28125 -0.28125 0.65625 -0.28125q0.375 0 0.65625 0.234375zm2.953125 -2.4375q0.796875 0.609375 1.546875 1.5l-0.5625 0.5625q-0.890625 -0.984375 -1.546875 -1.5l0.5625 -0.5625zm-1.125 1.03125q0.75 0.609375 1.59375 1.5l-0.5625 0.5625q-0.9375 -0.9375 -1.59375 -1.453125l0.5625 -0.609375zm13.96875 3.046875q-2.484375 5.15625 -8.34375 5.4375q-0.234375 0.609375 -0.46875 0.09375l-0.375 -1.21875q6.09375 -0.140625 8.203125 -5.015625l0.984375 0.703125zm-6.609375 0q-1.265625 -1.171875 -2.390625 -1.921875l0.796875 -0.984375q0.984375 0.609375 2.484375 2.015625l-0.890625 0.890625zm13.59375 0.1875l3.84375 0l0 1.03125l-3.84375 0q0 3.28125 -2.953125 4.921875l-0.75 -0.75q2.671875 -1.5 2.625 -4.171875l-4.6875 0l0 -1.03125l4.6875 0l0 -1.78125q-1.3125 0.140625 -3.421875 0.234375l-0.421875 -0.984375q4.546875 -0.09375 6.984375 -0.84375l0.515625 0.984375q0.140625 0.328125 -0.421875 0.09375q-0.984375 0.234375 -2.15625 0.375l0 1.921875zm8.765625 0.1875l3.84375 -0.9375l0.234375 -0.140625l0.75 0.75q0.1875 0.1875 -0.140625 0.28125q-0.84375 1.359375 -1.78125 2.625l-0.796875 -0.515625q0.75 -0.984375 1.40625 -2.0625l-3.234375 0.796875l1.59375 4.734375l-0.9375 0.328125l-1.546875 -4.875l-2.71875 0.75l-0.328125 -0.9375l2.71875 -0.609375l-0.75 -2.25l0.984375 -0.1875q0.421875 0 0.140625 0.328125l0.5625 1.921875zm6.0 1.21875l0 -1.03125l10.453125 0l0 1.03125l-10.453125 0z" fill-rule="nonzero"/><path fill="#000000" fill-opacity="0.0" d="m199.90625 45.99003l0 0l0 13.798828l0 0l0 -13.798828z" fill-rule="nonzero"/></g></svg>